<svg width="62" height="51" viewBox="0 0 62 51" fill="none" xmlns="http://www.w3.org/2000/svg">
<g filter="url(#filter0_d_1_4)">
<rect x="6" y="2" width="50" height="39.0244" rx="4" fill="black"/>
<rect x="5.4" y="1.4" width="51.2" height="40.2244" rx="4.6" stroke="white" stroke-width="1.2"/>
</g>
<path d="M21.9281 27.8821L21.8201 28.0141C21.7401 28.0941 21.6041 28.1981 21.4121 28.3261C21.2281 28.4461 21.0041 28.5701 20.7401 28.6981C20.4841 28.8181 20.1401 28.9181 19.7081 28.9981C19.2761 29.0861 18.8121 29.1301 18.3161 29.1301C17.2681 29.1301 16.3721 28.9581 15.6281 28.6141C14.8841 28.2621 14.3001 27.7541 13.8761 27.0901C13.4601 26.4181 13.1601 25.6621 12.9761 24.8221C12.7921 23.9741 12.7001 22.9941 12.7001 21.8821C12.7001 20.6981 12.7921 19.6781 12.9761 18.8221C13.1601 17.9581 13.4641 17.2021 13.8881 16.5541C14.3201 15.8981 14.9121 15.4061 15.6641 15.0781C16.4161 14.7501 17.3321 14.5861 18.4121 14.5861C18.9081 14.5861 19.3721 14.6301 19.8041 14.7181C20.2441 14.8061 20.5881 14.9061 20.8361 15.0181C21.0921 15.1301 21.3201 15.2581 21.5201 15.4021C21.7281 15.5461 21.8561 15.6461 21.9041 15.7021C21.9601 15.7581 22.0001 15.8021 22.0241 15.8341L21.8441 18.5941H20.0201L19.3961 17.1661C19.2521 17.1261 19.1321 17.1061 19.0361 17.1061C18.5001 17.1061 18.0881 17.2301 17.8001 17.4781C17.5121 17.7181 17.2921 18.1941 17.1401 18.9061C16.9881 19.6101 16.9121 20.6261 16.9121 21.9541C16.9121 22.7461 16.9601 23.4381 17.0561 24.0301C17.1601 24.6221 17.2841 25.0781 17.4281 25.3981C17.5721 25.7101 17.7441 25.9621 17.9441 26.1541C18.1441 26.3461 18.3241 26.4701 18.4841 26.5261C18.6441 26.5741 18.8161 26.5981 19.0001 26.5981C19.4081 26.5981 19.8361 26.5501 20.2841 26.4541C20.7321 26.3501 21.1001 26.1941 21.3881 25.9861L21.9281 27.8821ZM26.9454 24.1981V28.8781H22.9614V14.8141H24.5454C24.9294 14.8141 25.5014 14.7981 26.2614 14.7661C27.0214 14.7261 27.6494 14.7061 28.1454 14.7061C29.8734 14.7061 31.1614 15.0861 32.0094 15.8461C32.8654 16.6061 33.2934 17.7701 33.2934 19.3381C33.2934 20.2661 33.0894 21.0901 32.6814 21.8101C32.2814 22.5301 31.7494 23.1021 31.0854 23.5261C31.4454 23.6141 31.7534 23.8181 32.0094 24.1381C32.2734 24.4581 32.4774 24.8381 32.6214 25.2781C32.7654 25.7101 32.8894 26.1501 32.9934 26.5981C33.1054 27.0381 33.2294 27.4741 33.3654 27.9061C33.5094 28.3381 33.6654 28.6621 33.8334 28.8781H29.4054C29.3174 28.7661 29.2494 28.4541 29.2014 27.9421C29.1534 27.4221 29.0854 26.8021 28.9974 26.0821C28.9174 25.3541 28.8014 24.7461 28.6494 24.2581C28.6334 24.2581 28.6134 24.2581 28.5894 24.2581C28.4374 24.2581 28.2734 24.2581 28.0974 24.2581C27.9294 24.2501 27.7814 24.2421 27.6534 24.2341C27.5254 24.2261 27.3894 24.2181 27.2454 24.2101C27.1094 24.2021 27.0094 24.1981 26.9454 24.1981ZM26.9454 21.9661H27.3294C27.5294 21.9661 27.6974 21.9581 27.8334 21.9421C27.9694 21.9261 28.1174 21.8981 28.2774 21.8581C28.4454 21.8101 28.5814 21.7381 28.6854 21.6421C28.7974 21.5461 28.9014 21.4221 28.9974 21.2701C29.0934 21.1181 29.1654 20.9221 29.2134 20.6821C29.2614 20.4421 29.2854 20.1621 29.2854 19.8421V18.8941C29.2854 18.1981 29.1014 17.7141 28.7334 17.4421C28.3734 17.1621 27.8534 17.0221 27.1734 17.0221H26.9454V21.9661ZM40.4069 28.8781H36.6149L33.2669 14.8141H37.2629L37.8989 19.6621L38.8469 24.3661L40.0589 19.6621L40.3709 18.3781L39.4469 14.8141H43.3709L44.2349 19.6621L45.2909 24.3661L45.9509 19.6621L46.6589 14.8141H50.3069L47.2109 28.8781H43.1189L41.6429 23.2261L40.4069 28.8781Z" fill="white"/>
<defs>
<filter id="filter0_d_1_4" x="0.799999" y="0.800003" width="60.4" height="49.4244" filterUnits="userSpaceOnUse" color-interpolation-filters="sRGB">
<feFlood flood-opacity="0" result="BackgroundImageFix"/>
<feColorMatrix in="SourceAlpha" type="matrix" values="0 0 0 0 0 0 0 0 0 0 0 0 0 0 0 0 0 0 127 0" result="hardAlpha"/>
<feOffset dy="4"/>
<feGaussianBlur stdDeviation="2"/>
<feComposite in2="hardAlpha" operator="out"/>
<feColorMatrix type="matrix" values="0 0 0 0 0 0 0 0 0 0 0 0 0 0 0 0 0 0 0.25 0"/>
<feBlend mode="normal" in="SourceGraphic" in2="effect1_dropShadow_1_4" result="shape"/>
</filter>
</defs>
</svg>

